<svg width="8" height="12" viewBox="0 0 8 12" fill="none" xmlns="http://www.w3.org/2000/svg">
<path d="M7.84961 6.00684C7.84961 6.15072 7.82194 6.28353 7.7666 6.40527C7.7168 6.52702 7.63379 6.646 7.51758 6.76221L2.53711 11.6846C2.36003 11.8672 2.13867 11.9585 1.87305 11.9585C1.60189 11.9585 1.37223 11.8672 1.18408 11.6846C1.00146 11.4964 0.910156 11.2695 0.910156 11.0039C0.910156 10.7383 1.00977 10.5031 1.20898 10.2983L5.56689 6.00684L1.20898 1.71533C1.00977 1.51058 0.910156 1.27539 0.910156 1.00977C0.910156 0.744141 1.00146 0.52002 1.18408 0.337402C1.37223 0.149251 1.60189 0.0551758 1.87305 0.0551758C2.13867 0.0551758 2.36003 0.146484 2.53711 0.329102L7.51758 5.25146C7.73893 5.46729 7.84961 5.71908 7.84961 6.00684Z" fill="white"/>
</svg>
