<svg width="40" height="60" viewBox="0 0 40 60" fill="none" xmlns="http://www.w3.org/2000/svg">
<path d="M18.0918 45.25C17.4538 45.25 16.9935 45.0221 16.7109 44.5664C16.4284 44.1107 16.1868 43.541 15.9863 42.8574L13.1152 33.1094L3.24414 30.2109C2.58789 30.0104 2.04557 29.7734 1.61719 29.5C1.1888 29.2174 0.974609 28.7617 0.974609 28.1328C0.974609 27.6406 1.17057 27.2168 1.5625 26.8613C1.95443 26.5059 2.4375 26.2188 3.01172 26L26.5273 16.9902C26.8464 16.8717 27.1426 16.7806 27.416 16.7168C27.6986 16.6439 27.9538 16.6074 28.1816 16.6074C28.6283 16.6074 28.9792 16.735 29.2344 16.9902C29.4896 17.2454 29.6172 17.5964 29.6172 18.043C29.6172 18.2799 29.5807 18.5352 29.5078 18.8086C29.444 19.082 29.3529 19.3783 29.2344 19.6973L20.2793 43.0898C20.0241 43.7461 19.7188 44.2702 19.3633 44.6621C19.0078 45.054 18.584 45.25 18.0918 45.25ZM13.7305 31.0312L23.1367 21.625C23.5104 21.2513 23.9525 20.8548 24.4629 20.4355C24.9733 20.0163 25.4564 19.6243 25.9121 19.2598C25.4017 19.4967 24.8822 19.7428 24.3535 19.998C23.834 20.2441 23.3008 20.472 22.7539 20.6816L4.26953 27.6816C4.16927 27.7181 4.10091 27.7591 4.06445 27.8047C4.02799 27.8411 4.00977 27.8822 4.00977 27.9277C4.00977 27.9733 4.02799 28.0143 4.06445 28.0508C4.11003 28.0872 4.1875 28.1191 4.29688 28.1465L13.7305 31.0312ZM18.3105 42.2422C18.3561 42.2422 18.3971 42.2194 18.4336 42.1738C18.4701 42.1283 18.5065 42.0553 18.543 41.9551L25.543 23.4707C25.7526 22.9147 25.985 22.3724 26.2402 21.8438C26.4954 21.3151 26.7415 20.791 26.9785 20.2715C26.6139 20.7363 26.2174 21.2285 25.7891 21.748C25.3698 22.2676 24.9733 22.7142 24.5996 23.0879L15.1934 32.4941L18.0781 41.9277C18.1146 42.0371 18.1465 42.1146 18.1738 42.1602C18.2103 42.2148 18.2559 42.2422 18.3105 42.2422Z" fill="url(#paint0_linear_4119_80)"/>
<defs>
<linearGradient id="paint0_linear_4119_80" x1="21.1563" y1="20.2031" x2="11.875" y2="39.625" gradientUnits="userSpaceOnUse">
<stop stop-color="#FF18D1"/>
<stop offset="0.36351" stop-color="#FF2323"/>
<stop offset="1" stop-color="#FFDA22"/>
</linearGradient>
</defs>
</svg>
