<svg width="23" height="24" viewBox="0 0 23 24" fill="none" xmlns="http://www.w3.org/2000/svg">
<path d="M13.6436 23.125C13.1423 23.125 12.7806 22.946 12.5586 22.5879C12.3366 22.2298 12.1468 21.7822 11.9893 21.2451L9.7334 13.5859L1.97754 11.3086C1.46191 11.151 1.03581 10.9648 0.699219 10.75C0.36263 10.528 0.194336 10.1699 0.194336 9.67578C0.194336 9.28906 0.348307 8.95605 0.65625 8.67676C0.964193 8.39746 1.34375 8.17188 1.79492 8L20.2715 0.920898C20.5221 0.827799 20.7549 0.756185 20.9697 0.706055C21.1917 0.648763 21.3923 0.620117 21.5713 0.620117C21.9222 0.620117 22.1979 0.720378 22.3984 0.920898C22.599 1.12142 22.6992 1.39714 22.6992 1.74805C22.6992 1.93424 22.6706 2.13477 22.6133 2.34961C22.5632 2.56445 22.4915 2.7972 22.3984 3.04785L15.3623 21.4277C15.1618 21.9434 14.9219 22.3551 14.6426 22.6631C14.3633 22.971 14.0303 23.125 13.6436 23.125ZM10.2168 11.9531L17.6074 4.5625C17.901 4.26888 18.2484 3.95736 18.6494 3.62793C19.0505 3.2985 19.43 2.99056 19.7881 2.7041C19.387 2.8903 18.9788 3.08366 18.5635 3.28418C18.1553 3.47754 17.7363 3.65658 17.3066 3.82129L2.7832 9.32129C2.70443 9.34993 2.65072 9.38216 2.62207 9.41797C2.59342 9.44661 2.5791 9.47884 2.5791 9.51465C2.5791 9.55046 2.59342 9.58268 2.62207 9.61133C2.65788 9.63997 2.71875 9.66504 2.80469 9.68652L10.2168 11.9531ZM13.8154 20.7617C13.8512 20.7617 13.8835 20.7438 13.9121 20.708C13.9408 20.6722 13.9694 20.6149 13.998 20.5361L19.498 6.0127C19.6628 5.57585 19.8454 5.14974 20.0459 4.73438C20.2464 4.31901 20.4398 3.90723 20.626 3.49902C20.3395 3.86426 20.028 4.25098 19.6914 4.65918C19.362 5.06738 19.0505 5.41829 18.7568 5.71191L11.3662 13.1025L13.6328 20.5146C13.6615 20.6006 13.6865 20.6615 13.708 20.6973C13.7367 20.7402 13.7725 20.7617 13.8154 20.7617Z" fill="url(#paint0_linear_4139_1128)"/>
<defs>
<linearGradient id="paint0_linear_4139_1128" x1="17.625" y1="0.312501" x2="7.5" y2="21.5" gradientUnits="userSpaceOnUse">
<stop stop-color="#FF18D1"/>
<stop offset="0.36351" stop-color="#FF2323"/>
<stop offset="1" stop-color="#FFDA22"/>
</linearGradient>
</defs>
</svg>
