<svg width="19" height="19" viewBox="0 0 19 19" fill="none" xmlns="http://www.w3.org/2000/svg">
<path d="M2.23145 9.6543C2.23145 10.0293 2.26074 10.3984 2.31934 10.7617C2.37793 11.125 2.45703 11.4766 2.55664 11.8164L0.87793 12.5283C0.725586 12.0771 0.608398 11.6113 0.526367 11.1309C0.444336 10.6445 0.40332 10.1523 0.40332 9.6543C0.40332 9.15625 0.444336 8.66699 0.526367 8.18652C0.608398 7.7002 0.722656 7.23145 0.869141 6.78027L2.55664 7.49219C2.45703 7.82617 2.37793 8.1748 2.31934 8.53809C2.26074 8.90137 2.23145 9.27344 2.23145 9.6543ZM6.11621 3.20312C5.45996 3.54883 4.86816 3.98535 4.34082 4.5127C3.81934 5.04004 3.38867 5.63184 3.04883 6.28809L1.37012 5.59375C1.81543 4.7207 2.38379 3.93848 3.0752 3.24707C3.7666 2.5498 4.55176 1.97852 5.43066 1.5332L6.11621 3.20312ZM9.49121 2.38574C9.11035 2.38574 8.73535 2.41504 8.36621 2.47363C8.00293 2.52637 7.65137 2.6084 7.31152 2.71973L6.6084 1.04102C7.05957 0.882812 7.52539 0.765625 8.00586 0.689453C8.49219 0.607422 8.9873 0.566406 9.49121 0.566406C9.98926 0.566406 10.4785 0.607422 10.959 0.689453C11.4395 0.765625 11.9082 0.882812 12.3652 1.04102L11.6709 2.71973C11.3252 2.6084 10.9678 2.52637 10.5986 2.47363C10.2354 2.41504 9.86621 2.38574 9.49121 2.38574ZM15.9424 6.28809C15.5967 5.62012 15.1602 5.02539 14.6328 4.50391C14.1055 3.97656 13.5137 3.54297 12.8574 3.20312L13.5518 1.5332C14.4189 1.97266 15.2012 2.54102 15.8984 3.23828C16.5957 3.93555 17.167 4.7207 17.6123 5.59375L15.9424 6.28809ZM16.7686 9.6543C16.7686 9.27344 16.7393 8.90137 16.6807 8.53809C16.6221 8.1748 16.54 7.82324 16.4346 7.4834L18.1133 6.77148C18.2656 7.22852 18.3828 7.7002 18.4648 8.18652C18.5469 8.66699 18.5879 9.15625 18.5879 9.6543C18.5879 10.1523 18.5469 10.6445 18.4648 11.1309C18.3828 11.6113 18.2656 12.0801 18.1133 12.5371L16.4346 11.8252C16.54 11.4854 16.6221 11.1338 16.6807 10.7705C16.7393 10.4014 16.7686 10.0293 16.7686 9.6543ZM12.8574 16.0967C13.5137 15.7627 14.1055 15.332 14.6328 14.8047C15.166 14.2773 15.6055 13.6826 15.9512 13.0205L17.6035 13.7148C17.1641 14.5879 16.5957 15.373 15.8984 16.0703C15.207 16.7676 14.4248 17.3359 13.5518 17.7754L12.8574 16.0967ZM9.49121 16.9229C9.87207 16.9229 10.2412 16.8936 10.5986 16.835C10.9619 16.7822 11.3164 16.7031 11.6621 16.5977L12.3652 18.2764C11.9082 18.4287 11.4395 18.543 10.959 18.6191C10.4844 18.7012 9.99512 18.7422 9.49121 18.7422C8.99316 18.7422 8.50098 18.7012 8.01465 18.6191C7.53418 18.5371 7.06836 18.4199 6.61719 18.2676L7.31152 16.5889C7.65137 16.7002 8.00293 16.7822 8.36621 16.835C8.73535 16.8936 9.11035 16.9229 9.49121 16.9229ZM3.04883 13.0205C3.38867 13.6826 3.81934 14.2773 4.34082 14.8047C4.86816 15.3262 5.45996 15.7568 6.11621 16.0967L5.43066 17.7754C4.55762 17.3301 3.77539 16.7588 3.08398 16.0615C2.39258 15.3701 1.82422 14.5879 1.37891 13.7148L3.04883 13.0205Z" fill="#999999"/>
</svg>
