<svg width="20" height="22" viewBox="0 0 20 22" fill="none" xmlns="http://www.w3.org/2000/svg">
<path d="M5.51758 21.959C4.81445 21.959 4.24479 21.7507 3.80859 21.334C3.37891 20.9238 3.14779 20.3672 3.11523 19.6641L2.44141 5.45508H1.26953C1.07422 5.45508 0.901693 5.38346 0.751953 5.24023C0.608724 5.09049 0.537109 4.91471 0.537109 4.71289C0.537109 4.51758 0.608724 4.34831 0.751953 4.20508C0.901693 4.05534 1.07422 3.98047 1.26953 3.98047H18.7207C18.9225 3.98047 19.0951 4.05208 19.2383 4.19531C19.3815 4.33854 19.4531 4.51107 19.4531 4.71289C19.4531 4.91471 19.3815 5.09049 19.2383 5.24023C19.0951 5.38346 18.9225 5.45508 18.7207 5.45508H17.5488L16.875 19.6543C16.8424 20.3574 16.6081 20.9173 16.1719 21.334C15.7422 21.7507 15.1758 21.959 14.4727 21.959H5.51758ZM5.6543 20.4844H14.3164C14.6029 20.4844 14.8405 20.39 15.0293 20.2012C15.2246 20.0189 15.3288 19.7812 15.3418 19.4883L15.9766 5.45508H3.96484L4.64844 19.4883C4.66146 19.7747 4.76237 20.0124 4.95117 20.2012C5.14648 20.39 5.38086 20.4844 5.6543 20.4844ZM7.09961 18.8145C6.92383 18.8145 6.77734 18.7624 6.66016 18.6582C6.54948 18.554 6.49414 18.4141 6.49414 18.2383L6.19141 7.79883C6.19141 7.62956 6.24674 7.49284 6.35742 7.38867C6.4681 7.27799 6.61458 7.22266 6.79688 7.22266C6.97266 7.22266 7.11589 7.27474 7.22656 7.37891C7.34375 7.48307 7.4056 7.61979 7.41211 7.78906L7.70508 18.2383C7.71159 18.4076 7.65951 18.5475 7.54883 18.6582C7.43815 18.7624 7.28841 18.8145 7.09961 18.8145ZM10 18.8145C9.8112 18.8145 9.6582 18.7624 9.54102 18.6582C9.42383 18.5475 9.36523 18.4076 9.36523 18.2383V7.79883C9.36523 7.62956 9.42383 7.49284 9.54102 7.38867C9.6582 7.27799 9.8112 7.22266 10 7.22266C10.1823 7.22266 10.332 7.27799 10.4492 7.38867C10.5664 7.49284 10.625 7.62956 10.625 7.79883V18.2383C10.625 18.4076 10.5664 18.5475 10.4492 18.6582C10.332 18.7624 10.1823 18.8145 10 18.8145ZM12.8906 18.8145C12.7018 18.8145 12.5521 18.7624 12.4414 18.6582C12.3307 18.5475 12.2786 18.4076 12.2852 18.2383L12.5781 7.79883C12.5846 7.62305 12.6432 7.48307 12.7539 7.37891C12.8711 7.27474 13.0143 7.22266 13.1836 7.22266C13.3724 7.22266 13.5221 7.27799 13.6328 7.38867C13.7435 7.49284 13.7988 7.62956 13.7988 7.79883L13.4961 18.2383C13.4961 18.4141 13.4375 18.554 13.3203 18.6582C13.2096 18.7624 13.0664 18.8145 12.8906 18.8145ZM5.71289 4.67383V2.48633C5.71289 1.7832 5.92773 1.22982 6.35742 0.826172C6.78711 0.416016 7.37956 0.210938 8.13477 0.210938H11.8359C12.5911 0.210938 13.1836 0.416016 13.6133 0.826172C14.043 1.22982 14.2578 1.7832 14.2578 2.48633V4.67383H12.7051V2.58398C12.7051 2.31055 12.6172 2.08919 12.4414 1.91992C12.2656 1.75065 12.0312 1.66602 11.7383 1.66602H8.23242C7.93945 1.66602 7.70508 1.75065 7.5293 1.91992C7.35352 2.08919 7.26562 2.31055 7.26562 2.58398V4.67383H5.71289Z" fill="white" fill-opacity="0.5"/>
</svg>
