<svg width="19" height="19" viewBox="0 0 19 19" fill="none" xmlns="http://www.w3.org/2000/svg">
<path d="M9.49121 11.2627C8.92871 11.2568 8.41895 11.1074 7.96191 10.8145C7.50488 10.5215 7.1416 10.126 6.87207 9.62793C6.6084 9.12402 6.47363 8.55859 6.46777 7.93164C6.46191 7.33984 6.59375 6.79785 6.86328 6.30566C7.13281 5.81348 7.49609 5.41797 7.95312 5.11914C8.41602 4.82031 8.92871 4.6709 9.49121 4.6709C10.0596 4.6709 10.5723 4.82031 11.0293 5.11914C11.4863 5.41797 11.8496 5.81348 12.1191 6.30566C12.3887 6.79785 12.5234 7.33984 12.5234 7.93164C12.5234 8.55859 12.3887 9.12402 12.1191 9.62793C11.8555 10.1318 11.4922 10.5303 11.0293 10.8232C10.5723 11.1162 10.0596 11.2627 9.49121 11.2627ZM15.3359 15.4639C14.7734 15.9678 14.1465 16.3926 13.4551 16.7383C12.7637 17.0898 12.0693 17.3564 11.3721 17.5381C10.6807 17.7197 10.0537 17.8105 9.49121 17.8105C8.94043 17.8105 8.31641 17.7197 7.61914 17.5381C6.92188 17.3564 6.22461 17.0898 5.52734 16.7383C4.83594 16.3926 4.21191 15.9678 3.65527 15.4639L3.69043 15.3057C3.88379 14.8779 4.24414 14.4648 4.77148 14.0664C5.30469 13.6621 5.97266 13.334 6.77539 13.082C7.57812 12.8301 8.4834 12.7041 9.49121 12.7041C10.5107 12.7041 11.4219 12.8301 12.2246 13.082C13.0273 13.334 13.6924 13.6621 14.2197 14.0664C14.7471 14.4648 15.1074 14.8779 15.3008 15.3057L15.3359 15.4639ZM9.49121 18.751C8.24902 18.751 7.08008 18.5137 5.98438 18.0391C4.88867 17.5645 3.92188 16.9082 3.08398 16.0703C2.24609 15.2324 1.58984 14.2656 1.11523 13.1699C0.640625 12.0684 0.40332 10.8965 0.40332 9.6543C0.40332 8.41211 0.640625 7.24316 1.11523 6.14746C1.58984 5.05176 2.24316 4.08496 3.0752 3.24707C3.91309 2.40918 4.87988 1.75293 5.97559 1.27832C7.07129 0.803711 8.24316 0.566406 9.49121 0.566406C10.7334 0.566406 11.9023 0.803711 12.998 1.27832C14.0996 1.75293 15.0693 2.40918 15.9072 3.24707C16.7451 4.08496 17.4014 5.05176 17.876 6.14746C18.3506 7.24316 18.5879 8.41211 18.5879 9.6543C18.5879 10.8965 18.3506 12.0684 17.876 13.1699C17.4014 14.2656 16.7451 15.2324 15.9072 16.0703C15.0693 16.9082 14.1025 17.5645 13.0068 18.0391C11.9111 18.5137 10.7393 18.751 9.49121 18.751ZM9.49121 16.9229C10.5049 16.9229 11.4512 16.7354 12.3301 16.3604C13.209 15.9854 13.9795 15.4668 14.6416 14.8047C15.3096 14.1367 15.8311 13.3633 16.2061 12.4844C16.5811 11.6055 16.7686 10.6621 16.7686 9.6543C16.7686 8.64648 16.5781 7.70312 16.1973 6.82422C15.8223 5.94531 15.3008 5.1748 14.6328 4.5127C13.9648 3.84473 13.1914 3.32324 12.3125 2.94824C11.4395 2.57324 10.499 2.38574 9.49121 2.38574C8.4834 2.38574 7.54004 2.57324 6.66113 2.94824C5.78223 3.32324 5.01172 3.84473 4.34961 4.5127C3.6875 5.1748 3.16895 5.94531 2.79395 6.82422C2.41895 7.70312 2.23145 8.64648 2.23145 9.6543C2.23145 10.6621 2.41895 11.6055 2.79395 12.4844C3.16895 13.3633 3.6875 14.1367 4.34961 14.8047C5.01758 15.4668 5.78809 15.9854 6.66113 16.3604C7.54004 16.7354 8.4834 16.9229 9.49121 16.9229Z" fill="#999999"/>
</svg>
