<svg width="37" height="60" viewBox="0 0 37 60" fill="none" xmlns="http://www.w3.org/2000/svg">
<path d="M4.89258 44.2793C3.47982 44.2793 2.41797 43.9193 1.70703 43.1992C1.00521 42.4883 0.654297 41.4173 0.654297 39.9863V19.2598C0.654297 17.8379 1.00977 16.7669 1.7207 16.0469C2.43164 15.3268 3.48893 14.9668 4.89258 14.9668H19.4121C20.8249 14.9668 21.8822 15.3268 22.584 16.0469C23.2949 16.7578 23.6504 17.8288 23.6504 19.2598V33C23.3405 32.6445 22.9987 32.3164 22.625 32.0156C22.2604 31.7057 21.8685 31.4414 21.4492 31.2227V19.2871C21.4492 18.6126 21.2624 18.0931 20.8887 17.7285C20.515 17.3548 19.9863 17.168 19.3027 17.168H5.01562C4.30469 17.168 3.76693 17.3548 3.40234 17.7285C3.03776 18.0931 2.85547 18.6126 2.85547 19.2871V39.9863C2.85547 40.6699 3.03776 41.1895 3.40234 41.5449C3.76693 41.9004 4.30469 42.0781 5.01562 42.0781H10.6074C10.8353 42.4974 11.0996 42.8893 11.4004 43.2539C11.7012 43.6276 12.0293 43.9694 12.3848 44.2793H4.89258ZM24.9355 46.8086C24.571 46.8086 24.2383 46.6582 23.9375 46.3574L20.0957 42.502L21.832 40.9434L25.6602 44.7852C25.7786 44.8945 25.8698 45.0221 25.9336 45.168C26.0065 45.3229 26.043 45.4733 26.043 45.6191C26.043 45.9655 25.9382 46.248 25.7285 46.4668C25.5189 46.6947 25.2546 46.8086 24.9355 46.8086ZM17.5117 44.2793C16.3815 44.2793 15.3516 44.0013 14.4219 43.4453C13.4922 42.8984 12.7448 42.1602 12.1797 41.2305C11.6237 40.3008 11.3457 39.2708 11.3457 38.1406C11.3457 37.0104 11.6237 35.9805 12.1797 35.0508C12.7448 34.112 13.4922 33.3646 14.4219 32.8086C15.3516 32.2526 16.3815 31.9746 17.5117 31.9746C18.6419 31.9746 19.6719 32.2526 20.6016 32.8086C21.5312 33.3646 22.2695 34.1074 22.8164 35.0371C23.3724 35.9668 23.6504 37.0013 23.6504 38.1406C23.6504 39.2708 23.3724 40.3008 22.8164 41.2305C22.2695 42.1602 21.5312 42.8984 20.6016 43.4453C19.6719 44.0013 18.6419 44.2793 17.5117 44.2793ZM17.5117 42.3242C18.2773 42.3242 18.9746 42.1328 19.6035 41.75C20.2324 41.3763 20.7337 40.8704 21.1074 40.2324C21.4902 39.6035 21.6816 38.9062 21.6816 38.1406C21.6816 37.375 21.4902 36.6777 21.1074 36.0488C20.7337 35.4108 20.2279 34.9004 19.5898 34.5176C18.9609 34.1348 18.2682 33.9434 17.5117 33.9434C16.737 33.9434 16.0306 34.1348 15.3926 34.5176C14.7637 34.9004 14.2578 35.4108 13.875 36.0488C13.4922 36.6777 13.3008 37.375 13.3008 38.1406C13.3008 38.9062 13.4922 39.6035 13.875 40.2324C14.2578 40.8704 14.7637 41.3763 15.3926 41.75C16.0306 42.1328 16.737 42.3242 17.5117 42.3242ZM6.98438 27.5039C6.72917 27.5039 6.51953 27.4219 6.35547 27.2578C6.20052 27.0938 6.12305 26.8932 6.12305 26.6562C6.12305 26.4193 6.20052 26.2233 6.35547 26.0684C6.51953 25.9043 6.72917 25.8223 6.98438 25.8223H17.3477C17.5846 25.8223 17.7852 25.9043 17.9492 26.0684C18.1133 26.2233 18.1953 26.4193 18.1953 26.6562C18.1953 26.8932 18.1133 27.0938 17.9492 27.2578C17.7852 27.4219 17.5846 27.5039 17.3477 27.5039H6.98438ZM6.98438 22.7461C6.72917 22.7461 6.51953 22.6641 6.35547 22.5C6.20052 22.3268 6.12305 22.1217 6.12305 21.8848C6.12305 21.6569 6.20052 21.4655 6.35547 21.3105C6.51953 21.1465 6.72917 21.0645 6.98438 21.0645H17.3477C17.5846 21.0645 17.7852 21.1465 17.9492 21.3105C18.1133 21.4655 18.1953 21.6569 18.1953 21.8848C18.1953 22.1217 18.1133 22.3268 17.9492 22.5C17.7852 22.6641 17.5846 22.7461 17.3477 22.7461H6.98438Z" fill="url(#paint0_linear_4119_363)"/>
<defs>
<linearGradient id="paint0_linear_4119_363" x1="18.1563" y1="20.2031" x2="8.875" y2="39.625" gradientUnits="userSpaceOnUse">
<stop stop-color="#FF18D1"/>
<stop offset="0.36351" stop-color="#FF2323"/>
<stop offset="1" stop-color="#FFDA22"/>
</linearGradient>
</defs>
</svg>
