<svg width="26" height="20" viewBox="0 0 26 20" fill="none" xmlns="http://www.w3.org/2000/svg">
<path d="M3 9.89453C2.53776 9.89453 2.11458 9.7806 1.73047 9.55273C1.34635 9.32487 1.04036 9.01888 0.8125 8.63477C0.584635 8.25065 0.470703 7.82422 0.470703 7.35547C0.470703 6.89323 0.584635 6.47331 0.8125 6.0957C1.04036 5.71159 1.34635 5.4056 1.73047 5.17773C2.11458 4.94987 2.53776 4.83594 3 4.83594C3.46224 4.83594 3.88542 4.95312 4.26953 5.1875C4.65365 5.41536 4.95638 5.72135 5.17773 6.10547C5.4056 6.48307 5.51953 6.89974 5.51953 7.35547C5.51953 7.82422 5.4056 8.25065 5.17773 8.63477C4.95638 9.01888 4.65365 9.32487 4.26953 9.55273C3.88542 9.7806 3.46224 9.89453 3 9.89453ZM13 5.83203C12.5378 5.83203 12.1146 5.7181 11.7305 5.49023C11.3464 5.26237 11.0404 4.95964 10.8125 4.58203C10.5846 4.19792 10.4707 3.77148 10.4707 3.30273C10.4707 2.84049 10.5814 2.42057 10.8027 2.04297C11.0306 1.65885 11.3366 1.35286 11.7207 1.125C12.1048 0.897135 12.5312 0.783203 13 0.783203C13.4622 0.783203 13.8822 0.897135 14.2598 1.125C14.6439 1.35286 14.9499 1.65885 15.1777 2.04297C15.4056 2.42057 15.5195 2.84049 15.5195 3.30273C15.5195 3.77148 15.4056 4.19792 15.1777 4.58203C14.9499 4.95964 14.6439 5.26237 14.2598 5.49023C13.8822 5.7181 13.4622 5.83203 13 5.83203ZM22.9902 9.89453C22.528 9.89453 22.1048 9.7806 21.7207 9.55273C21.3366 9.32487 21.0306 9.01888 20.8027 8.63477C20.5814 8.25065 20.4707 7.82422 20.4707 7.35547C20.4707 6.89974 20.5814 6.48307 20.8027 6.10547C21.0306 5.72135 21.3366 5.41536 21.7207 5.1875C22.1048 4.95312 22.528 4.83594 22.9902 4.83594C23.4525 4.83594 23.8757 4.94987 24.2598 5.17773C24.6439 5.4056 24.9499 5.71159 25.1777 6.0957C25.4056 6.47331 25.5195 6.89323 25.5195 7.35547C25.5195 7.82422 25.4056 8.25065 25.1777 8.63477C24.9499 9.01888 24.6439 9.32487 24.2598 9.55273C23.8757 9.7806 23.4525 9.89453 22.9902 9.89453ZM3 8.37109C3.27995 8.37109 3.51432 8.27344 3.70312 8.07812C3.89844 7.8763 3.99609 7.63542 3.99609 7.35547C3.99609 7.08854 3.89844 6.85742 3.70312 6.66211C3.50781 6.46029 3.27344 6.35938 3 6.35938C2.72656 6.35938 2.48893 6.45703 2.28711 6.65234C2.0918 6.84766 1.99414 7.08203 1.99414 7.35547C1.99414 7.63542 2.0918 7.8763 2.28711 8.07812C2.48893 8.27344 2.72656 8.37109 3 8.37109ZM13 4.30859C13.2799 4.30859 13.5143 4.21094 13.7031 4.01562C13.8984 3.8138 13.9961 3.57617 13.9961 3.30273C13.9961 3.03581 13.8952 2.80469 13.6934 2.60938C13.498 2.40755 13.2669 2.30664 13 2.30664C12.7266 2.30664 12.4889 2.4043 12.2871 2.59961C12.0918 2.78841 11.9941 3.02279 11.9941 3.30273C11.9941 3.57617 12.0918 3.8138 12.2871 4.01562C12.4889 4.21094 12.7266 4.30859 13 4.30859ZM22.9902 8.37109C23.2637 8.37109 23.498 8.27344 23.6934 8.07812C23.8952 7.8763 23.9961 7.63542 23.9961 7.35547C23.9961 7.08203 23.8952 6.84766 23.6934 6.65234C23.498 6.45703 23.2637 6.35938 22.9902 6.35938C22.7168 6.35938 22.4824 6.46029 22.2871 6.66211C22.0918 6.85742 21.9941 7.08854 21.9941 7.35547C21.9941 7.63542 22.0885 7.8763 22.2773 8.07812C22.4727 8.27344 22.7103 8.37109 22.9902 8.37109ZM4.16211 9.25L4.94336 8L7.79492 9.75781C7.95768 9.86198 8.09115 9.9043 8.19531 9.88477C8.29948 9.85872 8.39714 9.78385 8.48828 9.66016L11.8574 5.13867L13.2539 5.73438L9.5625 10.6855C9.23698 11.1152 8.84961 11.3496 8.40039 11.3887C7.95117 11.4277 7.57031 11.3496 7.25781 11.1543L4.16211 9.25ZM21.8281 9.24023L18.6641 11.1836C18.3841 11.3594 18.0228 11.4277 17.5801 11.3887C17.1374 11.3496 16.7598 11.1185 16.4473 10.6953L12.7461 5.72461L14.1328 5.11914L17.4727 9.62109C17.5703 9.7513 17.6745 9.82943 17.7852 9.85547C17.8958 9.88151 18.0391 9.83919 18.2148 9.72852L21.0469 7.99023L21.8281 9.24023ZM5.39258 16.4082V14.9336H20.6074V16.4082H5.39258ZM2.95117 9.46484L4.31836 8.83984L6.4082 17.3945C6.57096 18.0716 7.01042 18.4102 7.72656 18.4102H18.2734C18.9831 18.4102 19.4225 18.0716 19.5918 17.3945L21.6719 8.83984L23.0488 9.46484L21.0566 17.5801C20.8678 18.3483 20.5553 18.9245 20.1191 19.3086C19.6829 19.6927 19.0612 19.8848 18.2539 19.8848H7.73633C6.92904 19.8848 6.30729 19.6927 5.87109 19.3086C5.44141 18.9245 5.13216 18.3483 4.94336 17.5801L2.95117 9.46484Z" fill="url(#paint0_linear_4170_798)"/>
<defs>
<linearGradient id="paint0_linear_4170_798" x1="18.625" y1="0.312501" x2="8.5" y2="21.5" gradientUnits="userSpaceOnUse">
<stop stop-color="#FF18D1"/>
<stop offset="0.36351" stop-color="#FF2323"/>
<stop offset="1" stop-color="#FFDA22"/>
</linearGradient>
</defs>
</svg>
