<svg width="25" height="26" viewBox="0 0 25 26" fill="none" xmlns="http://www.w3.org/2000/svg">
<path d="M6.77148 25.2505C5.70345 25.2505 4.89827 24.9821 4.35596 24.4453C3.81364 23.9085 3.54248 23.1089 3.54248 22.0464V9.71973C3.54248 8.65723 3.81364 7.86035 4.35596 7.3291C4.89827 6.79232 5.70345 6.52393 6.77148 6.52393H19.0317C20.1053 6.52393 20.9132 6.79232 21.4556 7.3291C21.9979 7.86589 22.269 8.66276 22.269 9.71973V22.0464C22.269 23.1034 22.009 23.9002 21.4888 24.437C20.9686 24.9793 20.2354 25.2505 19.2891 25.2505H6.77148ZM6.80469 23.7812H19.2559C19.6986 23.7812 20.0666 23.6291 20.3599 23.3247C20.6532 23.0203 20.7998 22.5693 20.7998 21.9717V9.80273C20.7998 9.20508 20.6421 8.75407 20.3267 8.44971C20.0168 8.14535 19.5768 7.99316 19.0068 7.99316H6.80469C6.22363 7.99316 5.77816 8.14535 5.46826 8.44971C5.1639 8.75407 5.01172 9.20508 5.01172 9.80273V21.9717C5.01172 22.5693 5.1639 23.0203 5.46826 23.3247C5.77816 23.6291 6.22363 23.7812 6.80469 23.7812ZM5.75879 4.72266C5.81966 4.31315 5.96077 3.99495 6.18213 3.76807C6.40348 3.53564 6.74105 3.41943 7.19482 3.41943H18.3594C18.8132 3.41943 19.1507 3.53564 19.3721 3.76807C19.5934 3.99495 19.7373 4.31315 19.8037 4.72266H5.75879ZM7.59326 1.90039C7.6154 1.51302 7.73714 1.21696 7.9585 1.01221C8.18538 0.801921 8.50911 0.696777 8.92969 0.696777H16.6992C17.1198 0.696777 17.4408 0.801921 17.6621 1.01221C17.8835 1.21696 18.008 1.51302 18.0356 1.90039H7.59326Z" fill="white"/>
</svg>
