<svg width="17" height="17" viewBox="0 0 17 17" fill="none" xmlns="http://www.w3.org/2000/svg">
<path d="M7.63867 16.8809V0.454102H9.36133V16.8809H7.63867ZM0.282227 9.52441V7.81055H16.7178V9.52441H0.282227ZM3.18262 16.8809C2.22754 16.8809 1.50391 16.6377 1.01172 16.1514C0.525391 15.6709 0.282227 14.959 0.282227 14.0156V3.31934C0.282227 2.37598 0.525391 1.66406 1.01172 1.18359C1.50391 0.697266 2.22754 0.454102 3.18262 0.454102H13.8174C14.7725 0.454102 15.4932 0.697266 15.9795 1.18359C16.4717 1.66406 16.7178 2.37598 16.7178 3.31934V14.0156C16.7178 14.959 16.4717 15.6709 15.9795 16.1514C15.4932 16.6377 14.7725 16.8809 13.8174 16.8809H3.18262ZM3.28809 15.123H13.7031C14.1074 15.123 14.415 15.0205 14.626 14.8154C14.8428 14.6045 14.9512 14.2852 14.9512 13.8574V3.47754C14.9512 3.0498 14.8428 2.7334 14.626 2.52832C14.415 2.31738 14.1074 2.21191 13.7031 2.21191H3.28809C2.88379 2.21191 2.57324 2.31738 2.35645 2.52832C2.14551 2.7334 2.04004 3.0498 2.04004 3.47754V13.8574C2.04004 14.2852 2.14551 14.6045 2.35645 14.8154C2.57324 15.0205 2.88379 15.123 3.28809 15.123Z" fill="#999999"/>
</svg>
