<svg width="18" height="19" viewBox="0 0 18 19" fill="none" xmlns="http://www.w3.org/2000/svg">
<path d="M8.89209 13.3604C8.36084 13.2663 7.91813 13.1307 7.56396 12.9536C7.2098 12.771 6.90267 12.5469 6.64258 12.2812C5.96745 11.6117 5.51921 10.8757 5.29785 10.0732C5.0765 9.2653 5.0765 8.46012 5.29785 7.65771C5.52474 6.85531 5.97021 6.12207 6.63428 5.45801L9.46484 2.61914C10.1289 1.95508 10.8621 1.51237 11.6646 1.29102C12.467 1.06413 13.2694 1.06136 14.0718 1.28271C14.8797 1.50407 15.6213 1.95231 16.2964 2.62744C16.966 3.29704 17.4115 4.03581 17.6328 4.84375C17.8542 5.64616 17.8514 6.44857 17.6245 7.25098C17.4032 8.05339 16.9632 8.78662 16.3047 9.45068L13.8643 11.8828C13.9085 11.6117 13.9141 11.3294 13.8809 11.0361C13.8532 10.7428 13.7812 10.4634 13.665 10.1978L15.292 8.5708C15.7734 8.08936 16.0944 7.55811 16.2549 6.97705C16.4154 6.396 16.4154 5.81494 16.2549 5.23389C16.0944 4.6473 15.7734 4.11328 15.292 3.63184C14.805 3.14486 14.271 2.82389 13.6899 2.66895C13.1089 2.50846 12.5278 2.50846 11.9468 2.66895C11.3657 2.82943 10.8317 3.15039 10.3447 3.63184L7.63867 6.33789C7.15723 6.81934 6.83626 7.35059 6.67578 7.93164C6.5153 8.5127 6.5153 9.09652 6.67578 9.68311C6.83626 10.2642 7.15999 10.7982 7.64697 11.2852C7.91813 11.5563 8.2391 11.7721 8.60986 11.9326C8.98617 12.0931 9.44824 12.1955 9.99609 12.2397L8.89209 13.3604ZM9.09961 6.52051C9.63086 6.61458 10.0736 6.75293 10.4277 6.93555C10.7819 7.11263 11.089 7.33398 11.3491 7.59961C12.0243 8.26921 12.4725 9.00798 12.6938 9.81592C12.9152 10.6183 12.9124 11.4207 12.6855 12.2231C12.4642 13.0256 12.0215 13.7588 11.3574 14.4229L8.51855 17.27C7.86003 17.9285 7.12956 18.3685 6.32715 18.5898C5.52474 18.8167 4.71956 18.8195 3.91162 18.5981C3.10921 18.3768 2.37044 17.9285 1.69531 17.2534C1.02572 16.5838 0.580241 15.8478 0.358887 15.0454C0.137533 14.2375 0.137533 13.4323 0.358887 12.6299C0.585775 11.8275 1.02848 11.0942 1.68701 10.4302L4.12744 7.99805C4.08317 8.26921 4.07487 8.5542 4.10254 8.85303C4.13574 9.14632 4.21045 9.42301 4.32666 9.68311L2.69971 11.3101C2.21826 11.7915 1.8973 12.3228 1.73682 12.9038C1.57633 13.4849 1.57633 14.0687 1.73682 14.6553C1.8973 15.2363 2.21826 15.7703 2.69971 16.2573C3.18115 16.7388 3.7124 17.057 4.29346 17.2119C4.88005 17.3724 5.46387 17.3724 6.04492 17.2119C6.62598 17.0514 7.15723 16.7305 7.63867 16.249L10.353 13.543C10.8345 13.0615 11.1527 12.5303 11.3076 11.9492C11.4681 11.3682 11.4681 10.7871 11.3076 10.2061C11.1471 9.61947 10.8262 9.08268 10.3447 8.5957C10.0736 8.32454 9.74984 8.10872 9.37354 7.94824C9.00277 7.78776 8.54346 7.68538 7.99561 7.64111L9.09961 6.52051Z" fill="#EBEBF5" fill-opacity="0.6"/>
</svg>
