<svg width="40" height="60" viewBox="0 0 40 60" fill="none" xmlns="http://www.w3.org/2000/svg">
<path d="M6.63477 43.418C6.35221 43.2083 6.17904 42.9258 6.11523 42.5703C6.06055 42.2148 6.11979 41.791 6.29297 41.2988L9.15039 32.7949L1.84961 27.5449C1.42122 27.2441 1.125 26.9342 0.960938 26.6152C0.796875 26.2962 0.769531 25.9681 0.878906 25.6309C0.988281 25.3027 1.20247 25.0566 1.52148 24.8926C1.84049 24.7285 2.26432 24.651 2.79297 24.6602L11.748 24.7148L14.4688 16.1699C14.6328 15.6686 14.8379 15.2904 15.084 15.0352C15.3392 14.7799 15.64 14.6523 15.9863 14.6523C16.3418 14.6523 16.6426 14.7799 16.8887 15.0352C17.1439 15.2904 17.3535 15.6686 17.5176 16.1699L20.2383 24.7148L29.1934 24.6602C29.722 24.651 30.1458 24.7285 30.4648 24.8926C30.7839 25.0566 30.998 25.3027 31.1074 25.6309C31.2168 25.9681 31.1895 26.2962 31.0254 26.6152C30.8613 26.9342 30.5651 27.2441 30.1367 27.5449L22.8359 32.7949L25.6934 41.2988C25.8665 41.791 25.9212 42.2148 25.8574 42.5703C25.8027 42.9258 25.6341 43.2083 25.3516 43.418C25.069 43.6367 24.75 43.7096 24.3945 43.6367C24.0391 43.5729 23.6517 43.3906 23.2324 43.0898L15.9863 37.7715L8.75391 43.0898C8.33464 43.3906 7.94727 43.5729 7.5918 43.6367C7.23633 43.7096 6.91732 43.6367 6.63477 43.418ZM8.60352 40.7109C8.62174 40.7383 8.66276 40.7292 8.72656 40.6836L15.3027 35.666C15.5215 35.4928 15.7493 35.4062 15.9863 35.4062C16.2324 35.4062 16.4648 35.4928 16.6836 35.666L23.2598 40.6836C23.3236 40.7292 23.3646 40.7383 23.3828 40.7109C23.3919 40.6927 23.3919 40.6517 23.3828 40.5879L20.6621 32.7676C20.5983 32.5944 20.5664 32.4303 20.5664 32.2754C20.5755 32.1204 20.6211 31.9792 20.7031 31.8516C20.7852 31.7148 20.9036 31.5918 21.0586 31.4824L27.8672 26.7793C27.931 26.7428 27.9538 26.7064 27.9355 26.6699C27.9264 26.6426 27.8854 26.6289 27.8125 26.6289L19.541 26.7793C19.2585 26.7884 19.026 26.7337 18.8438 26.6152C18.6615 26.4876 18.5293 26.2826 18.4473 26L16.0684 18.084C16.0501 18.0111 16.0228 17.9746 15.9863 17.9746C15.959 17.9746 15.9362 18.0111 15.918 18.084L13.5391 26C13.457 26.2826 13.3249 26.4876 13.1426 26.6152C12.9603 26.7337 12.7279 26.7884 12.4453 26.7793L4.17383 26.6289C4.10091 26.6289 4.0599 26.6426 4.05078 26.6699C4.03255 26.7064 4.05534 26.7428 4.11914 26.7793L10.9277 31.4824C11.0827 31.5918 11.2012 31.7148 11.2832 31.8516C11.3652 31.9792 11.4062 32.1204 11.4062 32.2754C11.4154 32.4303 11.388 32.5944 11.3242 32.7676L8.60352 40.5879C8.58529 40.6517 8.58529 40.6927 8.60352 40.7109Z" fill="url(#paint0_linear_4119_626)"/>
<defs>
<linearGradient id="paint0_linear_4119_626" x1="21.1563" y1="20.2031" x2="11.875" y2="39.625" gradientUnits="userSpaceOnUse">
<stop stop-color="#FF18D1"/>
<stop offset="0.36351" stop-color="#FF2323"/>
<stop offset="1" stop-color="#FFDA22"/>
</linearGradient>
</defs>
</svg>
