<svg width="24" height="23" viewBox="0 0 24 23" fill="none" xmlns="http://www.w3.org/2000/svg">
<path d="M4.6416 22.6855C4.4196 22.5208 4.28353 22.2988 4.2334 22.0195C4.19043 21.7402 4.23698 21.4072 4.37305 21.0205L6.61816 14.3389L0.881836 10.2139C0.545247 9.97754 0.3125 9.73405 0.183594 9.4834C0.0546875 9.23275 0.0332031 8.97493 0.119141 8.70996C0.205078 8.45215 0.373372 8.25879 0.624023 8.12988C0.874674 8.00098 1.20768 7.9401 1.62305 7.94727L8.65918 7.99023L10.7969 1.27637C10.9258 0.882487 11.0869 0.585286 11.2803 0.384766C11.4808 0.184245 11.7171 0.0839844 11.9893 0.0839844C12.2686 0.0839844 12.5049 0.184245 12.6982 0.384766C12.8988 0.585286 13.0635 0.882487 13.1924 1.27637L15.3301 7.99023L22.3662 7.94727C22.7816 7.9401 23.1146 8.00098 23.3652 8.12988C23.6159 8.25879 23.7842 8.45215 23.8701 8.70996C23.9561 8.97493 23.9346 9.23275 23.8057 9.4834C23.6768 9.73405 23.444 9.97754 23.1074 10.2139L17.3711 14.3389L19.6162 21.0205C19.7523 21.4072 19.7952 21.7402 19.7451 22.0195C19.7021 22.2988 19.5697 22.5208 19.3477 22.6855C19.1257 22.8574 18.875 22.9147 18.5957 22.8574C18.3164 22.8073 18.012 22.6641 17.6826 22.4277L11.9893 18.249L6.30664 22.4277C5.97721 22.6641 5.67285 22.8073 5.39355 22.8574C5.11426 22.9147 4.86361 22.8574 4.6416 22.6855ZM6.18848 20.5586C6.2028 20.5801 6.23503 20.5729 6.28516 20.5371L11.4521 16.5947C11.624 16.4587 11.8031 16.3906 11.9893 16.3906C12.1826 16.3906 12.3652 16.4587 12.5371 16.5947L17.7041 20.5371C17.7542 20.5729 17.7865 20.5801 17.8008 20.5586C17.8079 20.5443 17.8079 20.512 17.8008 20.4619L15.6631 14.3174C15.613 14.1813 15.5879 14.0524 15.5879 13.9307C15.5951 13.8089 15.6309 13.6979 15.6953 13.5977C15.7598 13.4902 15.8529 13.3936 15.9746 13.3076L21.3242 9.6123C21.3743 9.58366 21.3923 9.55501 21.3779 9.52637C21.3708 9.50488 21.3385 9.49414 21.2812 9.49414L14.7822 9.6123C14.5602 9.61947 14.3776 9.5765 14.2344 9.4834C14.0911 9.38314 13.9873 9.22201 13.9229 9L12.0537 2.78027C12.0394 2.72298 12.0179 2.69434 11.9893 2.69434C11.9678 2.69434 11.9499 2.72298 11.9355 2.78027L10.0664 9C10.002 9.22201 9.89811 9.38314 9.75488 9.4834C9.61165 9.5765 9.42904 9.61947 9.20703 9.6123L2.70801 9.49414C2.65072 9.49414 2.61849 9.50488 2.61133 9.52637C2.59701 9.55501 2.61491 9.58366 2.66504 9.6123L8.01465 13.3076C8.13639 13.3936 8.22949 13.4902 8.29395 13.5977C8.3584 13.6979 8.39062 13.8089 8.39062 13.9307C8.39779 14.0524 8.3763 14.1813 8.32617 14.3174L6.18848 20.4619C6.17415 20.512 6.17415 20.5443 6.18848 20.5586Z" fill="url(#paint0_linear_4139_1125)"/>
<defs>
<linearGradient id="paint0_linear_4139_1125" x1="17.625" y1="1.3125" x2="7.5" y2="22.5" gradientUnits="userSpaceOnUse">
<stop stop-color="#FF18D1"/>
<stop offset="0.36351" stop-color="#FF2323"/>
<stop offset="1" stop-color="#FFDA22"/>
</linearGradient>
</defs>
</svg>
