<svg width="20" height="19" viewBox="0 0 20 19" fill="none" xmlns="http://www.w3.org/2000/svg">
<path d="M0.730469 2.05078C0.597656 1.91797 0.507812 1.76172 0.460938 1.58203C0.421875 1.40234 0.421875 1.22266 0.460938 1.04297C0.507812 0.863281 0.597656 0.707031 0.730469 0.574219C0.863281 0.433594 1.01953 0.34375 1.19922 0.304688C1.37891 0.257812 1.55859 0.257812 1.73828 0.304688C1.92578 0.34375 2.08594 0.433594 2.21875 0.574219L18.707 17.0625C18.8398 17.1953 18.9258 17.3516 18.9648 17.5312C19.0117 17.7109 19.0117 17.8906 18.9648 18.0703C18.9258 18.25 18.8398 18.4062 18.707 18.5391C18.5742 18.6797 18.4141 18.7695 18.2266 18.8086C18.0469 18.8555 17.8672 18.8555 17.6875 18.8086C17.5078 18.7617 17.3516 18.6719 17.2188 18.5391L0.730469 2.05078ZM0.730469 17.0625L17.2188 0.574219C17.3516 0.433594 17.5078 0.34375 17.6875 0.304688C17.8672 0.257812 18.0469 0.257812 18.2266 0.304688C18.4062 0.34375 18.5664 0.433594 18.707 0.574219C18.8398 0.707031 18.9297 0.863281 18.9766 1.04297C19.0234 1.22266 19.0234 1.40234 18.9766 1.58203C18.9297 1.76172 18.8398 1.91797 18.707 2.05078L2.21875 18.5391C2.08594 18.6719 1.92969 18.7617 1.75 18.8086C1.57031 18.8555 1.39062 18.8555 1.21094 18.8086C1.03125 18.7617 0.871094 18.6719 0.730469 18.5391C0.589844 18.4062 0.496094 18.25 0.449219 18.0703C0.410156 17.8906 0.414062 17.7109 0.460938 17.5312C0.507812 17.3516 0.597656 17.1953 0.730469 17.0625Z" fill="white"/>
</svg>
