<svg width="105" height="103" viewBox="0 0 105 103" fill="none" xmlns="http://www.w3.org/2000/svg">
<path d="M39.8535 102.967C34.7428 102.967 30.9017 101.697 28.3301 99.1582C25.791 96.6517 24.5215 92.8757 24.5215 87.8301V38.416C24.5215 33.3704 25.791 29.5944 28.3301 27.0879C30.9017 24.5488 34.7428 23.2793 39.8535 23.2793H88.877C93.9551 23.2793 97.7637 24.5488 100.303 27.0879C102.874 29.627 104.16 33.403 104.16 38.416V87.8301C104.16 92.8431 102.874 96.6191 100.303 99.1582C97.7637 101.697 93.9551 102.967 88.877 102.967H39.8535ZM16.1719 80.3594C11.0612 80.3594 7.22005 79.1061 4.64844 76.5996C2.10938 74.0605 0.839844 70.2682 0.839844 65.2227V15.8086C0.839844 10.763 2.10938 6.98698 4.64844 4.48047C7.22005 1.94141 11.0612 0.671875 16.1719 0.671875H65.1953C70.2734 0.671875 74.082 1.94141 76.6211 4.48047C79.1927 7.01953 80.4785 10.7956 80.4785 15.8086V26.9414H72.6172V16.248C72.6172 13.709 71.9499 11.7884 70.6152 10.4863C69.3132 9.18424 67.4577 8.5332 65.0488 8.5332H16.2695C13.8281 8.5332 11.9564 9.18424 10.6543 10.4863C9.35221 11.7884 8.70117 13.709 8.70117 16.248V64.7832C8.70117 67.3223 9.35221 69.2428 10.6543 70.5449C11.9564 71.847 13.8281 72.498 16.2695 72.498H28.5254V80.3594H16.1719ZM64.4629 87.3906C64.8861 87.3906 65.2279 87.2604 65.4883 87C65.7487 86.7396 65.9115 86.3978 65.9766 85.9746C66.5299 81.7428 67.181 78.3411 67.9297 75.7695C68.6784 73.1654 69.7689 71.1471 71.2012 69.7148C72.666 68.25 74.668 67.1595 77.207 66.4434C79.7786 65.7272 83.1803 65.1087 87.4121 64.5879C87.8027 64.5553 88.1283 64.3926 88.3887 64.0996C88.6491 63.8066 88.7793 63.4486 88.7793 63.0254C88.7793 62.6348 88.6491 62.3092 88.3887 62.0488C88.1283 61.7559 87.8027 61.5768 87.4121 61.5117C84.0267 61.1536 81.1784 60.7142 78.8672 60.1934C76.5885 59.6725 74.7005 58.9727 73.2031 58.0938C71.7383 57.1823 70.5501 55.9779 69.6387 54.4805C68.7598 52.9831 68.0436 51.0625 67.4902 48.7188C66.9368 46.375 66.4323 43.5104 65.9766 40.125C65.9115 39.7018 65.7487 39.36 65.4883 39.0996C65.2279 38.8392 64.8861 38.709 64.4629 38.709C64.0397 38.709 63.6979 38.8392 63.4375 39.0996C63.2096 39.36 63.0632 39.7018 62.998 40.125C62.5423 43.5104 62.0378 46.375 61.4844 48.7188C60.9635 51.0625 60.2474 52.9831 59.3359 54.4805C58.4245 55.9779 57.2201 57.1823 55.7227 58.0938C54.2578 58.9727 52.3698 59.6725 50.0586 60.1934C47.7799 60.7142 44.9642 61.1536 41.6113 61.5117C41.1556 61.5768 40.7812 61.7559 40.4883 62.0488C40.2279 62.3092 40.0977 62.6348 40.0977 63.0254C40.0977 63.4486 40.2279 63.8066 40.4883 64.0996C40.7812 64.3926 41.1556 64.5553 41.6113 64.5879C44.9642 64.9785 47.7799 65.4342 50.0586 65.9551C52.3372 66.4759 54.209 67.1921 55.6738 68.1035C57.1712 68.9824 58.3757 70.1706 59.2871 71.668C60.1986 73.1654 60.931 75.0859 61.4844 77.4297C62.0378 79.7409 62.5423 82.5892 62.998 85.9746C63.0632 86.3978 63.2096 86.7396 63.4375 87C63.6979 87.2604 64.0397 87.3906 64.4629 87.3906ZM85.752 53.0645C86.2402 53.0645 86.5169 52.7878 86.582 52.2344C86.8424 49.9557 87.1517 48.3118 87.5098 47.3027C87.9004 46.2936 88.6165 45.5938 89.6582 45.2031C90.6999 44.8125 92.3763 44.4544 94.6875 44.1289C95.2734 43.9987 95.5664 43.6895 95.5664 43.2012C95.5664 42.7129 95.2897 42.4362 94.7363 42.3711C92.4577 41.9154 90.7975 41.4922 89.7559 41.1016C88.7142 40.7109 87.998 40.0273 87.6074 39.0508C87.2493 38.0417 86.9076 36.4303 86.582 34.2168C86.5169 33.6634 86.2402 33.3867 85.752 33.3867C85.2311 33.3867 84.9382 33.6471 84.873 34.168C84.6452 35.8607 84.401 37.1953 84.1406 38.1719C83.9128 39.1484 83.5384 39.8971 83.0176 40.418C82.5293 40.9388 81.7969 41.3294 80.8203 41.5898C79.8438 41.8503 78.4766 42.1107 76.7188 42.3711C76.1654 42.4362 75.8887 42.7129 75.8887 43.2012C75.8887 43.6895 76.1654 43.9987 76.7188 44.1289C79.0625 44.5521 80.7552 44.959 81.7969 45.3496C82.8385 45.7402 83.5384 46.4238 83.8965 47.4004C84.2546 48.377 84.5801 50.0046 84.873 52.2832C84.9382 52.804 85.2311 53.0645 85.752 53.0645Z" fill="white" fill-opacity="0.12"/>
</svg>
